<svg width="129" height="36" viewBox="0 0 129 36" xmlns="http://www.w3.org/2000/svg">
    <path d="M41.124 1c.311 0 .564.253.564.564v15.553l5.555-7.738a.846.846 0 0 1 .687-.353h7.104V1.564c0-.311.253-.564.564-.564h4.57c.311 0 .564.253.564.564v7.462h3.373c.287 0 .465.31.321.558l-2.252 3.868a.846.846 0 0 1-.731.42h-.711v12.57a.564.564 0 0 1-.564.564h-4.57a.564.564 0 0 1-.564-.564v-12.57h-4.956l-2.816 3.645 6.533 8.898a.371.371 0 0 1-.3.591h-5.51a.846.846 0 0 1-.703-.375l-5.594-8.341v8.152a.564.564 0 0 1-.564.564h-4.57a.564.564 0 0 1-.564-.564v-5.006a9.38 9.38 0 0 1-8.725 5.94 9.38 9.38 0 0 1-8.721-5.931 9.38 9.38 0 0 1-12.92 4.938v8.053a.564.564 0 0 1-.565.564H.564A.564.564 0 0 1 0 34.436V9.574c0-.302.245-.548.548-.548h4.601c.303 0 .548.246.548.548a9.38 9.38 0 0 1 12.847 4.976 9.38 9.38 0 0 1 8.721-5.93 9.38 9.38 0 0 1 8.725 5.94V1.563c0-.311.253-.564.564-.564zm29.89 7.508c1.504 0 2.91.265 4.218.796 1.128.458 2.063 1.104 2.806 1.938a.568.568 0 0 1-.017.774l-2.452 2.509a.567.567 0 0 1-.802.002 4.688 4.688 0 0 0-1.515-1.006c-.702-.283-1.387-.425-2.053-.425-.642 0-1.122.099-1.443.296-.32.197-.48.456-.48.776 0 .37.215.666.647.888.431.222.974.42 1.628.592.653.173 1.35.377 2.09.61.74.236 1.442.568 2.108 1a5.06 5.06 0 0 1 1.193 1.085c-.004-.115-.009-.23-.009-.345a9.378 9.378 0 0 1 15.09-7.436c.253.194.294.56.09.805a10.412 10.412 0 0 0-1.889 3.462c-.126.396-.626.528-.917.23a4.18 4.18 0 0 0-3.223-1.255c-2.027.108-3.872 1.964-3.966 3.992a4.2 4.2 0 0 0 4.194 4.4 4.177 4.177 0 0 0 2.978-1.243.557.557 0 0 1 .935.214 10.406 10.406 0 0 0 1.889 3.46.564.564 0 0 1-.09.807 9.375 9.375 0 0 1-14.045-3.135c-.134 1.48-.783 2.687-1.952 3.616-1.32 1.048-3.102 1.572-5.346 1.572-1.06 0-2.108-.142-3.144-.425a11.734 11.734 0 0 1-2.85-1.184 10.663 10.663 0 0 1-1.835-1.347.566.566 0 0 1-.016-.815l2.461-2.461c.21-.211.549-.22.771-.022a6.674 6.674 0 0 0 1.746 1.13c.801.358 1.696.537 2.682.537.617 0 1.104-.099 1.462-.297.357-.197.536-.48.536-.85 0-.444-.21-.77-.629-.98-.42-.21-.968-.408-1.646-.593a54.107 54.107 0 0 1-2.128-.629 10.096 10.096 0 0 1-2.108-.943 4.67 4.67 0 0 1-1.628-1.628c-.42-.69-.629-1.59-.629-2.7 0-1.16.296-2.165.888-3.016.592-.85 1.43-1.522 2.516-2.016 1.085-.493 2.38-.74 3.884-.74zm29.352.111c1.51 0 2.935.359 4.199.993V9.59c0-.311.252-.564.564-.564h4.258c.311 0 .564.253.564.564v16.852a.564.564 0 0 1-.564.564h-4.258a.564.564 0 0 1-.564-.564v-.059a9.38 9.38 0 0 1-13.556-9.026c.308-4.641 4.068-8.402 8.709-8.716.218-.015.434-.022.648-.022zm21.59.037c1.307 0 2.679.309 3.714.925a6.683 6.683 0 0 1 2.442 2.497A6.845 6.845 0 0 1 129 15.5v10.942a.564.564 0 0 1-.564.564h-4.77a.564.564 0 0 1-.563-.564v-9.684c0-.912-.296-1.658-.888-2.238-.592-.58-1.332-.87-2.22-.87-.592 0-1.123.13-1.59.389a2.858 2.858 0 0 0-1.11 1.091c-.272.47-.407 1.012-.407 1.628v9.684a.564.564 0 0 1-.564.564h-4.67a.564.564 0 0 1-.564-.564V9.59c0-.311.253-.564.564-.564h4.67c.311 0 .564.253.564.564v.879c.402-.363.85-.68 1.35-.943 1.097-.58 2.336-.87 3.718-.87zm-94.69 4.528-4.648 4.647 4.647 4.647 4.647-4.647-4.647-4.647zM9.821 13.8a4.199 4.199 0 1 0 0 8.397 4.199 4.199 0 0 0 0-8.397zm90.698 0c-2.319 0-4.353 1.88-4.353 4.199s2.034 4.199 4.353 4.199 4.27-1.88 4.27-4.2c0-2.318-1.951-4.198-4.27-4.198z" fill="#FFF" fill-rule="evenodd"/>
</svg>
