<svg width="140" height="36" viewBox="0 0 140 36" xmlns="http://www.w3.org/2000/svg">
    <path d="M42.119 25.925c-1.379-.886-2.335-2.088-2.869-3.606l3.173-1.507c.449.983 1.074 1.752 1.876 2.308a4.59 4.59 0 0 0 2.677.834c.748 0 1.346-.171 1.794-.513.448-.342.673-.79.673-1.346 0-.342-.091-.625-.273-.85a2.323 2.323 0 0 0-.72-.577c-.3-.16-.642-.294-1.026-.4l-2.853-.802c-1.454-.406-2.558-1.052-3.317-1.94-.758-.886-1.138-1.927-1.138-3.125 0-1.069.273-2.003.817-2.805.546-.802 1.303-1.427 2.276-1.875.973-.448 2.088-.673 3.35-.673 1.646 0 3.098.396 4.359 1.186 1.26.791 2.158 1.902 2.692 3.334l-3.205 1.506a3.792 3.792 0 0 0-1.506-1.875 4.256 4.256 0 0 0-2.372-.69c-.704 0-1.26.156-1.666.465-.407.31-.609.731-.609 1.267 0 .3.086.566.256.802.171.235.411.427.721.577.31.15.667.287 1.074.416l2.788.834c1.431.427 2.537 1.069 3.317 1.923.78.854 1.17 1.902 1.17 3.142 0 1.048-.277 1.97-.833 2.773-.556.802-1.325 1.427-2.308 1.875-.984.448-2.138.673-3.461.673-1.859-.001-3.478-.445-4.857-1.33zm17.277.144a9.087 9.087 0 0 1-3.35-3.238c-.833-1.367-1.25-2.927-1.25-4.68 0-1.752.417-3.312 1.25-4.68a9.145 9.145 0 0 1 3.334-3.237c1.388-.79 2.938-1.186 4.648-1.186 1.71 0 3.29.396 4.68 1.186a9.057 9.057 0 0 1 3.317 3.221c.823 1.357 1.234 2.923 1.234 4.696 0 1.774-.417 3.313-1.25 4.68a9.133 9.133 0 0 1-3.334 3.238c-1.39.791-2.938 1.186-4.649 1.186-1.686 0-3.23-.396-4.63-1.186zm4.632-2.66c.962 0 1.8-.226 2.517-.674.715-.448 1.281-1.073 1.698-1.875.417-.802.625-1.704.625-2.709 0-1.004-.208-1.902-.625-2.692a4.771 4.771 0 0 0-1.698-1.858c-.717-.449-1.555-.674-2.517-.674s-1.773.225-2.5.674a4.722 4.722 0 0 0-1.715 1.858c-.417.792-.625 1.688-.625 2.692 0 1.005.208 1.907.625 2.709.417.802.988 1.427 1.715 1.875.725.448 1.56.673 2.5.673zm14.985 2.66a9.087 9.087 0 0 1-3.35-3.238c-.833-1.367-1.25-2.927-1.25-4.68 0-1.752.417-3.312 1.25-4.68a9.145 9.145 0 0 1 3.334-3.237c1.388-.79 2.938-1.186 4.648-1.186 1.71 0 3.29.396 4.68 1.186a9.057 9.057 0 0 1 3.317 3.221c.823 1.357 1.234 2.923 1.234 4.696 0 1.774-.417 3.313-1.25 4.68a9.133 9.133 0 0 1-3.334 3.238c-1.39.791-2.938 1.186-4.649 1.186-1.686 0-3.23-.396-4.63-1.186zm4.632-2.66c.962 0 1.8-.226 2.517-.674.715-.448 1.281-1.073 1.698-1.875.417-.802.625-1.704.625-2.709 0-1.004-.208-1.902-.625-2.692a4.771 4.771 0 0 0-1.698-1.858c-.717-.449-1.555-.674-2.517-.674s-1.773.225-2.5.674a4.722 4.722 0 0 0-1.715 1.858c-.417.792-.625 1.688-.625 2.692 0 1.005.208 1.907.625 2.709.417.802.988 1.427 1.715 1.875.725.448 1.56.673 2.5.673zm14.167 2.035c-1.09-1.08-1.636-2.6-1.636-4.567V12.93h-2.981V9.083h.32c.855 0 1.512-.274 1.972-.723.459-.448.69-1.1.69-1.954V5.05h4.231v4.033h4.007v3.847h-4.007v7.722c0 .577.102 1.068.304 1.475.203.406.523.716.963.929.437.214.998.32 1.683.32.15 0 .325-.01.53-.03l.593-.065v3.59c-.3.042-.642.085-1.026.129a9.852 9.852 0 0 1-1.058.064c-1.968-.001-3.496-.54-4.585-1.62zm8.333-20.394h4.231v7.813l-.577-.609c.407-1.046 1.074-1.842 2.003-2.387.93-.546 2.015-.817 3.253-.817s2.42.277 3.413.833a5.93 5.93 0 0 1 2.323 2.323c.556.994.834 2.143.834 3.447V26.95h-4.199V16.645c0-.769-.15-1.432-.448-1.988-.3-.556-.71-.983-1.234-1.281-.523-.299-1.137-.449-1.843-.449s-1.294.15-1.828.449c-.535.3-.95.727-1.25 1.281-.3.556-.448 1.219-.448 1.988V26.95h-4.232l.002-21.9zm25.684 22.205c-1.794 0-3.371-.407-4.728-1.219a8.452 8.452 0 0 1-3.156-3.302c-.748-1.39-1.122-2.928-1.122-4.616 0-1.687.386-3.306 1.155-4.663a8.75 8.75 0 0 1 3.108-3.221c1.303-.79 2.778-1.186 4.424-1.186 1.367 0 2.57.225 3.606.673a7.701 7.701 0 0 1 2.645 1.859 8.348 8.348 0 0 1 1.666 2.709c.386 1.014.578 2.11.578 3.285 0 .321-.017.636-.048.946-.032.31-.092.594-.177.85h-13.463v-3.238h11.091l-2.019 1.507c.213-.984.177-1.859-.112-2.63a3.758 3.758 0 0 0-1.41-1.827c-.653-.448-1.438-.673-2.357-.673-.919 0-1.656.225-2.34.673-.684.449-1.202 1.09-1.554 1.923-.353.834-.486 1.849-.4 3.045-.086 1.069.058 2.015.433 2.836.373.823.929 1.458 1.666 1.907.738.448 1.586.673 2.549.673.962 0 1.779-.203 2.452-.609a4.38 4.38 0 0 0 1.586-1.635l3.398 1.667c-.342.833-.877 1.57-1.602 2.21-.727.642-1.592 1.144-2.597 1.507-1.004.363-2.094.546-3.269.546l-.003.003zM22.76 3.72c.09-.09.23-.114.345-.057 5.27 2.617 8.892 8.054 8.892 14.337C31.997 26.838 24.835 34 15.999 34c-.984 0-1.945-.09-2.879-.26a.15.15 0 0 1-.077-.254l2.203-2.204 9.844-9.843a5.315 5.315 0 1 0-7.518-7.518l-5.652 5.653c-.7.7-1.84.69-2.529-.024-.677-.703-.625-1.835.064-2.524zM16 2c.983 0 1.944.09 2.878.26a.15.15 0 0 1 .077.254l-2.203 2.204-9.844 9.843a5.315 5.315 0 1 0 7.518 7.518l5.652-5.653a1.771 1.771 0 1 1 2.506 2.506l-9.843 9.844-3.503 3.502a.301.301 0 0 1-.345.057C3.622 29.717 0 24.28 0 17.999 0 9.162 7.162 2 15.999 2z" fill="#FFF" fill-rule="nonzero"/>
</svg>
