<svg width="22" height="22" viewBox="0 0 22 22" xmlns="http://www.w3.org/2000/svg">
    <defs>
        <linearGradient x1="100%" y1="0%" x2="0%" y2="100%" id="q2saodw06a">
            <stop stop-color="#EEB569" offset="0%"/>
            <stop stop-color="#DC7442" offset="100%"/>
        </linearGradient>
    </defs>
    <g fill="none" fill-rule="evenodd">
        <path d="M11 0c6.075 0 11 4.925 11 11s-4.925 11-11 11S0 17.075 0 11 4.925 0 11 0z" fill="url(#q2saodw06a)"/>
        <path d="M8.707 7.293a1 1 0 0 0-1.497 1.32l.083.094L9.586 11l-2.293 2.293a1 1 0 0 0 1.32 1.497l.094-.083L11 12.414l2.293 2.293a1 1 0 0 0 1.497-1.32l-.083-.094L12.414 11l2.293-2.293a1 1 0 0 0-1.32-1.497l-.094.083L11 9.586 8.707 7.293z" fill="#583215"/>
    </g>
</svg>
