<svg width="13" height="13" viewBox="0 0 13 13" xmlns="http://www.w3.org/2000/svg">
    <defs>
        <linearGradient x1="50%" y1="0%" x2="50%" y2="100%" id="ft6sncj92a">
            <stop stop-color="#FFB55F" offset="0%"/>
            <stop stop-color="#F98034" offset="100%"/>
        </linearGradient>
    </defs>
    <path d="M6.5 0a6.5 6.5 0 1 1 0 13 6.5 6.5 0 0 1 0-13zm0 8.8a.7.7 0 1 0 0 1.4.7.7 0 0 0 0-1.4zm0-5.75a.65.65 0 0 0-.65.65v3.6a.65.65 0 1 0 1.3 0V3.7a.65.65 0 0 0-.65-.65z" fill="url(#ft6sncj92a)" fill-rule="evenodd"/>
</svg>
