<svg width="133" height="36" viewBox="0 0 133 36" xmlns="http://www.w3.org/2000/svg">
    <path d="M66.013 10.048c-2.312 0-4.261.855-5.793 2.546-1.377 1.535-2.076 3.372-2.076 5.455s.735 3.956 2.186 5.527c1.468 1.573 3.38 2.37 5.68 2.37 2.301 0 4.2-.797 5.67-2.372 1.46-1.571 2.198-3.43 2.198-5.527s-.699-3.932-2.079-5.471c-1.527-1.677-3.474-2.528-5.786-2.528zm4.293 10.643a4.694 4.694 0 0 1-1.791 1.843 5.012 5.012 0 0 1-2.504.639 4.963 4.963 0 0 1-2.488-.64 4.777 4.777 0 0 1-1.803-1.842 5.395 5.395 0 0 1-.667-2.618c0-1.45.481-2.654 1.472-3.676.984-1.018 2.126-1.514 3.488-1.514s2.504.496 3.488 1.514c.99 1.022 1.472 2.224 1.472 3.676 0 .928-.224 1.809-.667 2.618zM96.908 6v10.162L106.59 26h-3.674l-6.008-5.815V26h-2.877V6h2.877zm17.667 4.078c2.546 0 4.616.989 6.152 2.94 1.088 1.373 1.643 3.098 1.653 5.131v.168l.001.098v.182l.001.083h-12.615c.12 1.27.577 2.306 1.388 3.153.912.945 2.01 1.404 3.354 1.404.653 0 1.296-.116 1.911-.342a5.142 5.142 0 0 0 1.553-.904c.438-.376.923-1.006 1.448-1.88l.23-.368 2.048 2.012c-.479.893-1.042 1.636-1.67 2.209a7.614 7.614 0 0 1-2.387 1.477c-.883.332-1.88.497-2.975.497-2.444 0-4.387-.818-5.779-2.432-1.371-1.601-2.066-3.432-2.066-5.447 0-1.9.589-3.62 1.755-5.105 1.483-1.907 3.452-2.876 5.998-2.876zm-7.485-.05L100 16.98l-1.874-1.893 5.461-5.06h3.503zm7.497 2.842c-1.254 0-2.302.391-3.203 1.2-.515.463-.934 1.134-1.256 1.995h9.044c-.202-.59-.456-1.077-.761-1.452-.41-.517-.963-.939-1.646-1.252a5.07 5.07 0 0 0-2.178-.491zm16.253 10.514c-.752.333-1.365.02-2.008-.37-.956-.577-.884-1.653-.838-2.939V14.61H131v-2.617h-3.018V6h-2.981v14.36c-.018 1.123-.059 2.167.48 3.114.897 1.52 2.147 2.336 3.726 2.424l.164.002c.765 0 1.376-.182 2.312-.54l.503-.193.81-.393-1.57-1.596-.586.206zm-41.651-8.29.291.391 2.289-1.434-.262-.445a6.418 6.418 0 0 0-1.677-1.905c-.653-.497-1.454-.902-2.38-1.202a9.14 9.14 0 0 0-2.852-.451c-1.573 0-3.019.355-4.289 1.056a7.878 7.878 0 0 0-3.03 2.94 7.951 7.951 0 0 0-1.1 4.08c0 2.167.794 4.034 2.36 5.548 1.569 1.507 3.556 2.272 5.906 2.272 1.53 0 2.913-.296 4.113-.879 1.194-.585 2.15-1.393 2.871-2.448 0 0 .008-.01.022-.034l-1.955-1.998-.3.375c-1.217 1.53-2.745 2.274-4.675 2.274-1.037 0-1.98-.23-2.806-.682a4.954 4.954 0 0 1-1.94-1.91 5.312 5.312 0 0 1-.715-2.661c0-1.454.503-2.654 1.535-3.664 1.046-1.016 2.33-1.512 3.926-1.512 1.994.002 3.522.751 4.668 2.289zM40.002 17.36l4.047 3.978.672.66c.218.177.448.338.694.478a5.117 5.117 0 0 0 2.627.699c1.474 0 2.687-.495 3.707-1.514a4.95 4.95 0 0 0 .37-.407c.123-.17.237-.343.343-.53a5.278 5.278 0 0 0 .725-2.401l2.386 2.346a7.658 7.658 0 0 1-1.159 2.228 6.16 6.16 0 0 1-1.39 1.344c-1.395 1.134-3.028 1.71-4.874 1.71a7.922 7.922 0 0 1-2.991-.566 7.65 7.65 0 0 1-2.317-1.347V31h-2.783v-.104c-.004-.591-.02-3.605-.034-6.639l-.003-.7c-.01-2.092-.019-4.106-.021-5.245v-.952zm7.82-7.314c1.065 0 2.068.192 2.99.565.377.136.74.304 1.09.5.432.23.841.5 1.228.818.275.226.541.474.794.743 1.207 1.31 1.891 2.845 2.044 4.573.002.006.002.02-.002.018l.004 1.35-4.267-4.196a5.014 5.014 0 0 0-1.15-.9 5.118 5.118 0 0 0-2.627-.7c-1.474 0-2.688.496-3.708 1.514a4.95 4.95 0 0 0-.37.408c-.123.17-.237.343-.343.529a5.383 5.383 0 0 0-.71 2.25l-2.354-2.314a7.667 7.667 0 0 1 1.116-2.105 6.16 6.16 0 0 1 1.39-1.343c1.393-1.135 3.028-1.71 4.875-1.71zM16 2c2.122 0 4.147.413 6 1.163v7.687C19.328 8.523 10.492 6.5 7 14.63l2.827 2.818c.108-3.23 2.905-5.575 5.909-5.498 2.331.06 3.439.713 6.527 3.774l.434.433c.67.671 1.428 1.447 2.304 2.343V4.77C29.226 7.65 32 12.501 32 18c0 8.837-7.164 16-16 16-2.122 0-4.147-.413-6-1.163V25.15c2.673 2.327 11.508 4.35 15-3.78l-2.826-2.818c-.108 3.23-2.905 5.575-5.909 5.498-2.915-.075-3.917-1.076-9.265-6.55v13.73C2.774 28.35 0 23.5 0 18 0 9.163 7.163 2 16 2z" fill="#FFF" fill-rule="nonzero"/>
</svg>
