<svg width="20" height="20" viewBox="0 0 20 20" xmlns="http://www.w3.org/2000/svg">
    <defs>
        <linearGradient x1="50%" y1="0%" x2="50%" y2="99.74%" id="4lc7i18cua">
            <stop stop-color="#7B8FAF" offset="0%"/>
            <stop stop-color="#50627E" offset="100%"/>
        </linearGradient>
    </defs>
    <path d="M10.565 0c.735 0 1.393.44 1.676 1.107l.052.136.353 1.057c.166.497.544.888 1.003 1.143l.212.122c.4.24.862.371 1.322.324l.171-.027 1.095-.223a1.822 1.822 0 0 1 1.864.749l.078.123.565.978a1.816 1.816 0 0 1-.116 1.995l-.099.12L18 8.44c-.347.391-.498.913-.49 1.437v.246c-.007.465.111.93.382 1.302l.108.135.742.836c.486.546.593 1.325.287 1.977l-.072.138-.565.978a1.822 1.822 0 0 1-1.798.896l-.144-.024-1.094-.224c-.515-.105-1.044.028-1.494.298l-.212.122c-.408.227-.752.56-.94.981l-.063.162-.353 1.057a1.82 1.82 0 0 1-1.582 1.237l-.146.006h-1.13c-.735 0-1.393-.44-1.676-1.107l-.052-.136-.353-1.057c-.166-.497-.544-.888-1.003-1.143l-.212-.122c-.4-.24-.862-.372-1.322-.324l-.172.026-1.094.224a1.822 1.822 0 0 1-1.864-.749l-.078-.123-.565-.978a1.816 1.816 0 0 1 .116-1.995l.099-.12L2 11.56c.347-.391.498-.914.49-1.437v-.246c.007-.465-.111-.93-.382-1.302l-.108-.135-.742-.836a1.816 1.816 0 0 1-.287-1.977l.072-.138.565-.978a1.822 1.822 0 0 1 1.798-.896l.144.024 1.095.223c.514.106 1.043-.027 1.493-.297l.212-.122c.408-.227.752-.56.94-.981l.063-.162.353-1.057A1.82 1.82 0 0 1 9.29.006L9.435 0h1.13zM10 7a3 3 0 1 0 0 6 3 3 0 0 0 0-6z" fill="url(#4lc7i18cua)" fill-rule="evenodd"/>
</svg>
