<svg width="24" height="24" viewBox="0 0 24 24" xmlns="http://www.w3.org/2000/svg">
    <defs>
        <linearGradient x1="100%" y1="0%" x2="0%" y2="100%" id="n21xwnupea">
            <stop stop-color="#FFB43B" offset="0%"/>
            <stop stop-color="#FF7A3B" offset="100%"/>
        </linearGradient>
    </defs>
    <path d="M17.072 1.288a.226.226 0 0 1 .258-.042C21.284 3.21 24 7.289 24 12 24 18.628 18.628 24 12 24c-.738 0-1.458-.067-2.159-.195a.113.113 0 0 1-.058-.19l1.653-1.653 7.383-7.383a3.986 3.986 0 1 0-5.638-5.639l-4.24 4.24a1.329 1.329 0 0 1-1.897-.018c-.508-.527-.469-1.376.048-1.893l7.352-7.353zM12 0c.736 0 1.458.066 2.159.193a.113.113 0 0 1 .058.192l-1.653 1.652L5.181 9.42a3.986 3.986 0 1 0 5.638 5.639l4.24-4.24a1.329 1.329 0 1 1 1.88 1.88l-7.383 7.383-2.628 2.627a.226.226 0 0 1-.258.043A11.998 11.998 0 0 1 0 11.999C0 5.372 5.372 0 12 0z" fill="url(#n21xwnupea)" fill-rule="nonzero"/>
</svg>
