<svg width="18" height="18" viewBox="0 0 18 18" xmlns="http://www.w3.org/2000/svg">
    <defs>
        <linearGradient x1="50%" y1="0%" x2="50%" y2="99.74%" id="qf9f8x5tpa">
            <stop stop-color="#7B8FAF" offset="0%"/>
            <stop stop-color="#50627E" offset="100%"/>
        </linearGradient>
    </defs>
    <path d="M11.534 2c1.285.228 2.534.622 3.715 1.179 2.036 3.053 3.048 6.5 2.675 10.478A14.778 14.778 0 0 1 13.368 16c-.37-.508-.696-1.05-.976-1.613a9.668 9.668 0 0 0 1.54-.755 4.713 4.713 0 0 1-.377-.291 10.45 10.45 0 0 1-9.107 0c-.122.095-.248.195-.377.29a9.762 9.762 0 0 0 1.536.752c-.28.564-.606 1.105-.976 1.613A14.786 14.786 0 0 1 .076 13.65C-.24 10.221.395 6.744 2.743 3.175A14.724 14.724 0 0 1 6.458 2c.176.32.337.652.477.99a13.56 13.56 0 0 1 4.121 0c.144-.338.302-.67.478-.99zM5.998 7.8c-.9 0-1.598.763-1.598 1.702S5.126 11.2 6.002 11.2c.893 0 1.584-.763 1.598-1.698.014-.936-.702-1.702-1.602-1.702zM12 7.8c-.901 0-1.6.763-1.6 1.702S11.12 11.2 12 11.2c.894 0 1.586-.763 1.6-1.698C13.614 8.566 12.9 7.8 12 7.8z" fill="url(#qf9f8x5tpa)" fill-rule="nonzero"/>
</svg>
