<svg width="20" height="20" viewBox="0 0 20 20" xmlns="http://www.w3.org/2000/svg">
    <defs>
        <linearGradient x1="50%" y1="0%" x2="50%" y2="99.74%" id="2y9od75qla">
            <stop stop-color="#7B8FAF" offset="0%"/>
            <stop stop-color="#50627E" offset="100%"/>
        </linearGradient>
    </defs>
    <path d="M10 1a9 9 0 1 1 0 18 9 9 0 0 1 0-18zm0 12.8a1.2 1.2 0 1 0 0 2.4 1.2 1.2 0 0 0 0-2.4zM10 4a4.001 4.001 0 0 0-3.772 2.667 1 1 0 0 0 1.84.774l.046-.108a2.001 2.001 0 1 1 2.035 2.662L10 10a1 1 0 0 0-1 1v.5a1 1 0 1 0 2 0v.374A4.002 4.002 0 0 0 10 4z" fill="url(#2y9od75qla)" fill-rule="evenodd"/>
</svg>
