<svg width="20" height="20" viewBox="0 0 20 20" xmlns="http://www.w3.org/2000/svg">
    <defs>
        <linearGradient x1="50%" y1="0%" x2="50%" y2="99.74%" id="qj8st6u4sa">
            <stop stop-color="#7B8FAF" offset="0%"/>
            <stop stop-color="#50627E" offset="100%"/>
        </linearGradient>
    </defs>
    <path d="M18.176 13.344c.332-.18.758.019.817.374l.007.084V15c0 2.272-3.95 4-9 4-4.944 0-8.835-1.656-8.995-3.859L1 15v-1.198c0-.406.467-.652.824-.458.185.1.375.195.571.285C4.222 14.47 6.776 15 10 15s5.778-.53 7.605-1.37c.196-.09.386-.186.57-.286zM19 8.09V9.5c0 1.5-2.95 3.5-9 3.5s-9-2-9-3.5V8.09c0-.391.433-.639.788-.476.4.184.82.34 1.244.475C4.913 8.684 7.38 9 10 9c2.62 0 5.087-.316 6.968-.911.424-.135.844-.291 1.244-.475.355-.163.788.085.788.476zM9.684 1.002 10 1c4.97 0 9 1.382 9 3.086 0 .942-1.233 1.734-3.176 2.253l-.461.115c-.316.073-.647.14-.992.2l-.528.083c-.269.04-.545.075-.828.106l-.574.055-.59.044-.604.032a29.779 29.779 0 0 1-2.494 0l-.604-.032-.59-.044-.574-.055c-.283-.031-.56-.066-.828-.106l-.528-.083c-.345-.06-.676-.127-.992-.2l-.46-.115C2.232 5.82 1 5.03 1 4.086c0-1.668 3.86-3.027 8.684-3.084z" fill="url(#qj8st6u4sa)" fill-rule="nonzero"/>
</svg>
