<svg width="20" height="20" viewBox="0 0 20 20" xmlns="http://www.w3.org/2000/svg">
    <defs>
        <linearGradient x1="50%" y1="0%" x2="50%" y2="99.74%" id="8tl3l0isqa">
            <stop stop-color="#7B8FAF" offset="0%"/>
            <stop stop-color="#50627E" offset="100%"/>
        </linearGradient>
    </defs>
    <path d="M14 17a1 1 0 0 1 1 1v1a1 1 0 1 1-2 0v-1a1 1 0 0 1 1-1zm-4 0a1 1 0 0 1 1 1v1a1 1 0 1 1-2 0v-1a1 1 0 0 1 1-1zm-4 0a1 1 0 0 1 1 1v1a1 1 0 0 1-2 0v-1a1 1 0 0 1 1-1zm6.5-12A2.5 2.5 0 0 1 15 7.5v5a2.5 2.5 0 0 1-2.5 2.5h-5A2.5 2.5 0 0 1 5 12.5v-5A2.5 2.5 0 0 1 7.5 5h5zM2 13a1 1 0 1 1 0 2H1a1 1 0 1 1 0-2h1zm17 0a1 1 0 1 1 0 2h-1a1 1 0 1 1 0-2h1zM2 9a1 1 0 1 1 0 2H1a1 1 0 1 1 0-2h1zm17 0a1 1 0 0 1 0 2h-1a1 1 0 1 1 0-2h1zM2 5a1 1 0 1 1 0 2H1a1 1 0 1 1 0-2h1zm17 0a1 1 0 0 1 0 2h-1a1 1 0 1 1 0-2h1zm-5-5a1 1 0 0 1 1 1v1a1 1 0 1 1-2 0V1a1 1 0 0 1 1-1zm-4 0a1 1 0 0 1 1 1v1a1 1 0 1 1-2 0V1a1 1 0 0 1 1-1zM6 0a1 1 0 0 1 1 1v1a1 1 0 1 1-2 0V1a1 1 0 0 1 1-1z" fill="url(#8tl3l0isqa)" fill-rule="nonzero"/>
</svg>
